# Blender v3.2.1 OBJ File: 'water.blend'
# www.blender.org
mtllib water.mtl
o Circle
v 0.000000 0.000000 -1.000000
v -0.195090 0.000000 -0.980785
v -0.382683 0.000000 -0.923880
v -0.555570 0.000000 -0.831470
v -0.707107 0.000000 -0.707107
v -0.831470 0.000000 -0.555570
v -0.923880 0.000000 -0.382683
v -0.980785 0.000000 -0.195090
v -1.000000 0.000000 0.000000
v -0.980785 0.000000 0.195090
v -0.923880 0.000000 0.382683
v -0.831470 0.000000 0.555570
v -0.707107 0.000000 0.707107
v -0.555570 0.000000 0.831470
v -0.382683 0.000000 0.923880
v -0.195090 0.000000 0.980785
v 0.000000 0.000000 1.000000
v 0.195090 0.000000 0.980785
v 0.382683 0.000000 0.923880
v 0.555570 0.000000 0.831470
v 0.707107 0.000000 0.707107
v 0.831469 0.000000 0.555570
v 0.923880 0.000000 0.382684
v 0.980785 0.000000 0.195090
v 1.000000 0.000000 -0.000000
v 0.980785 0.000000 -0.195090
v 0.923879 0.000000 -0.382684
v 0.831470 0.000000 -0.555570
v 0.707107 0.000000 -0.707107
v 0.555570 0.000000 -0.831470
v 0.382683 0.000000 -0.923880
v 0.195090 0.000000 -0.980785
v -0.000000 0.001056 -0.108923
v -0.021250 0.001056 -0.106830
v -0.041683 0.001056 -0.100632
v -0.060514 0.001056 -0.090566
v -0.077020 0.001056 -0.077020
v -0.090566 0.001056 -0.060514
v -0.100632 0.001056 -0.041683
v -0.106830 0.001056 -0.021250
v -0.108923 0.001056 0.000000
v -0.106830 0.001056 0.021250
v -0.100632 0.001056 0.041683
v -0.090566 0.001056 0.060514
v -0.077020 0.001056 0.077020
v -0.060514 0.001056 0.090566
v -0.041683 0.001056 0.100632
v -0.021250 0.001056 0.106830
v 0.000000 0.001056 0.108923
v 0.021250 0.001056 0.106830
v 0.041683 0.001056 0.100632
v 0.060514 0.001056 0.090566
v 0.077020 0.001056 0.077020
v 0.090566 0.001056 0.060514
v 0.100632 0.001056 0.041683
v 0.106830 0.001056 0.021250
v 0.108923 0.001056 0.000000
v 0.106830 0.001056 -0.021250
v 0.100632 0.001056 -0.041683
v 0.090566 0.001056 -0.060514
v 0.077020 0.001056 -0.077020
v 0.060514 0.001056 -0.090566
v 0.041683 0.001056 -0.100632
v 0.021250 0.001056 -0.106830
v -0.503313 0.000111 -0.753262
v -0.640597 0.000111 -0.640597
v 0.346688 0.000111 -0.836980
v 0.176740 0.000111 -0.888533
v 0.176740 0.000111 0.888533
v 0.346688 0.000111 0.836980
v -0.753262 0.000111 -0.503313
v -0.000000 0.000111 -0.905940
v 0.503314 0.000111 0.753262
v -0.836980 0.000111 -0.346688
v 0.640596 0.000111 0.640597
v -0.888533 0.000111 -0.176740
v 0.753262 0.000111 0.503314
v -0.905940 0.000111 0.000000
v 0.836980 0.000111 0.346688
v -0.888533 0.000111 0.176740
v 0.888533 0.000111 0.176740
v -0.836980 0.000111 0.346688
v 0.905940 0.000111 -0.000000
v -0.753262 0.000111 0.503313
v 0.888533 0.000111 -0.176740
v -0.640597 0.000111 0.640597
v 0.836980 0.000111 -0.346689
v -0.503313 0.000111 0.753262
v 0.753262 0.000111 -0.503313
v -0.346688 0.000111 0.836980
v -0.176740 0.000111 -0.888533
v 0.640597 0.000111 -0.640596
v -0.176740 0.000111 0.888533
v -0.346688 0.000111 -0.836980
v 0.503314 0.000111 -0.753262
v 0.000000 0.000111 0.905940
v -0.395061 0.000342 -0.591250
v 0.272123 0.000342 -0.656962
v 0.138727 0.000342 0.697428
v -0.502817 0.000342 -0.502817
v 0.138727 0.000342 -0.697428
v 0.272123 0.000342 0.656962
v -0.591250 0.000342 -0.395061
v -0.000000 0.000342 -0.711091
v 0.395061 0.000342 0.591250
v -0.656962 0.000342 -0.272123
v 0.502817 0.000342 0.502817
v -0.697427 0.000342 -0.138727
v 0.591250 0.000342 0.395061
v -0.711091 0.000342 0.000000
v 0.656962 0.000342 0.272123
v -0.697427 0.000342 0.138727
v 0.697427 0.000342 0.138727
v -0.656962 0.000342 0.272123
v 0.711091 0.000342 -0.000000
v -0.591250 0.000342 0.395061
v 0.697427 0.000342 -0.138727
v -0.502817 0.000342 0.502817
v 0.656962 0.000342 -0.272123
v -0.395061 0.000342 0.591250
v 0.591251 0.000342 -0.395061
v -0.272123 0.000342 0.656962
v -0.138727 0.000342 -0.697427
v 0.502817 0.000342 -0.502817
v -0.138727 0.000342 0.697428
v -0.272123 0.000342 -0.656962
v 0.395061 0.000342 -0.591250
v 0.000000 0.000342 0.711091
v -0.268428 0.000613 -0.401731
v 0.184897 0.000613 -0.446380
v 0.094259 0.000613 0.473875
v -0.341644 0.000613 -0.341644
v 0.094259 0.000613 -0.473875
v 0.184897 0.000613 0.446380
v -0.401731 0.000613 -0.268428
v -0.000000 0.000613 -0.483158
v 0.268428 0.000613 0.401731
v -0.446380 0.000613 -0.184897
v 0.341644 0.000613 0.341645
v -0.473875 0.000613 -0.094260
v 0.401731 0.000613 0.268429
v -0.483158 0.000613 0.000000
v 0.446380 0.000613 0.184897
v -0.473875 0.000613 0.094260
v 0.473875 0.000613 0.094260
v -0.446380 0.000613 0.184897
v 0.483158 0.000613 0.000000
v -0.401731 0.000613 0.268428
v 0.473875 0.000613 -0.094260
v -0.341644 0.000613 0.341644
v 0.446380 0.000613 -0.184897
v -0.268428 0.000613 0.401731
v 0.401731 0.000613 -0.268428
v -0.184897 0.000613 0.446380
v -0.094260 0.000613 -0.473875
v 0.341645 0.000613 -0.341644
v -0.094260 0.000613 0.473875
v -0.184897 0.000613 -0.446380
v 0.268428 0.000613 -0.401731
v 0.000000 0.000613 0.483158
v -0.107814 0.000955 -0.161354
v 0.074263 0.000955 -0.179287
v 0.037859 0.000955 0.190331
v -0.137221 0.000955 -0.137221
v 0.037859 0.000955 -0.190331
v 0.074263 0.000955 0.179288
v -0.161354 0.000955 -0.107814
v -0.000000 0.000955 -0.194059
v 0.107814 0.000955 0.161354
v -0.179288 0.000955 -0.074263
v 0.137221 0.000955 0.137221
v -0.190331 0.000955 -0.037859
v 0.161354 0.000955 0.107814
v -0.194059 0.000955 0.000000
v 0.179287 0.000955 0.074263
v -0.190331 0.000955 0.037859
v 0.190331 0.000955 0.037859
v -0.179288 0.000955 0.074263
v 0.194059 0.000955 0.000000
v -0.161354 0.000955 0.107814
v 0.190331 0.000955 -0.037859
v -0.137221 0.000955 0.137221
v 0.179287 0.000955 -0.074263
v -0.107814 0.000955 0.161355
v 0.161354 0.000955 -0.107814
v -0.074263 0.000955 0.179288
v -0.037859 0.000955 -0.190331
v 0.137221 0.000955 -0.137221
v -0.037859 0.000955 0.190331
v -0.074263 0.000955 -0.179287
v 0.107814 0.000955 -0.161354
v 0.000000 0.000955 0.194059
vt 0.907190 0.904860
vt 0.875901 0.904860
vt 0.875901 1.000543
vt 0.907190 1.000543
vt 0.750747 0.904860
vt 0.719458 0.904860
vt 0.719458 1.000543
vt 0.750747 1.000543
vt 0.343995 0.904860
vt 0.312706 0.904860
vt 0.312706 1.000543
vt 0.343995 1.000543
vt 0.938479 0.904860
vt 0.938479 1.000543
vt 0.782036 0.904860
vt 0.782036 1.000543
vt 0.375283 0.904860
vt 0.375283 1.000543
vt 0.969767 0.904860
vt 0.969767 1.000543
vt 0.406572 0.904860
vt 0.406572 1.000543
vt 1.001056 0.904860
vt 1.001056 1.000543
vt 0.437861 0.904860
vt 0.437861 1.000543
vt 0.031109 0.904860
vt -0.000180 0.904860
vt -0.000180 1.000543
vt 0.031109 1.000543
vt 0.469149 0.904860
vt 0.469149 1.000543
vt 0.062397 0.904860
vt 0.062397 1.000543
vt 0.500438 0.904860
vt 0.500438 1.000543
vt 0.093686 0.904860
vt 0.093686 1.000543
vt 0.531726 0.904860
vt 0.531726 1.000543
vt 0.124974 0.904860
vt 0.124974 1.000543
vt 0.563015 0.904860
vt 0.563015 1.000543
vt 0.156263 0.904860
vt 0.156263 1.000543
vt 0.594304 0.904860
vt 0.594304 1.000543
vt 0.187552 0.904860
vt 0.187552 1.000543
vt 0.625592 0.904860
vt 0.625592 1.000543
vt 0.218840 0.904860
vt 0.218840 1.000543
vt 0.813324 0.904860
vt 0.813324 1.000543
vt 0.656881 0.904860
vt 0.656881 1.000543
vt 0.250129 0.904860
vt 0.250129 1.000543
vt 0.844613 0.904860
vt 0.844613 1.000543
vt 0.688170 0.904860
vt 0.688170 1.000543
vt 0.281418 0.904860
vt 0.281418 1.000543
vt 0.312706 -0.000916
vt 0.281418 -0.000916
vt 0.281418 0.104796
vt 0.312706 0.104796
vt 0.719458 -0.000916
vt 0.688170 -0.000916
vt 0.688170 0.104796
vt 0.719458 0.104796
vt 0.875901 -0.000916
vt 0.844613 -0.000916
vt 0.844613 0.104796
vt 0.875901 0.104796
vt 0.250129 -0.000916
vt 0.250129 0.104796
vt 0.656881 -0.000916
vt 0.656881 0.104796
vt 0.813324 -0.000916
vt 0.813324 0.104796
vt 0.218840 -0.000916
vt 0.218840 0.104796
vt 0.625592 -0.000916
vt 0.625592 0.104796
vt 0.782036 -0.000916
vt 0.782036 0.104796
vt 0.187552 -0.000916
vt 0.187552 0.104796
vt 0.594304 -0.000916
vt 0.594304 0.104796
vt 0.156263 -0.000916
vt 0.156263 0.104796
vt 0.563015 -0.000916
vt 0.563015 0.104796
vt 0.124974 -0.000916
vt 0.124974 0.104796
vt 0.531726 -0.000916
vt 0.531726 0.104796
vt 0.093686 -0.000916
vt 0.093686 0.104796
vt 0.500438 -0.000916
vt 0.500438 0.104796
vt 0.062397 -0.000916
vt 0.062397 0.104796
vt 0.469149 -0.000916
vt 0.469149 0.104796
vt 0.031109 -0.000916
vt 0.031109 0.104796
vt 0.437861 -0.000916
vt 0.437861 0.104796
vt -0.000180 -0.000916
vt -0.000180 0.104796
vt 0.406572 -0.000916
vt 0.406572 0.104796
vt 1.001056 -0.000916
vt 0.969767 -0.000916
vt 0.969767 0.104796
vt 1.001056 0.104796
vt 0.375283 -0.000916
vt 0.375283 0.104796
vt 0.938479 -0.000916
vt 0.938479 0.104796
vt 0.343995 -0.000916
vt 0.343995 0.104796
vt 0.750747 -0.000916
vt 0.750747 0.104796
vt 0.907190 -0.000916
vt 0.907190 0.104796
vt 0.281418 0.323782
vt 0.312706 0.323782
vt 0.688170 0.323782
vt 0.719458 0.323782
vt 0.844613 0.323782
vt 0.875901 0.323782
vt 0.250129 0.323782
vt 0.656881 0.323782
vt 0.813324 0.323782
vt 0.218840 0.323782
vt 0.625592 0.323782
vt 0.782036 0.323782
vt 0.187552 0.323782
vt 0.594304 0.323782
vt 0.156263 0.323782
vt 0.563015 0.323782
vt 0.124974 0.323782
vt 0.531726 0.323782
vt 0.093686 0.323782
vt 0.500438 0.323782
vt 0.062397 0.323782
vt 0.469149 0.323782
vt 0.031109 0.323782
vt 0.437861 0.323782
vt -0.000180 0.323782
vt 0.406572 0.323782
vt 0.969767 0.323782
vt 1.001056 0.323782
vt 0.375283 0.323782
vt 0.938479 0.323782
vt 0.343995 0.323782
vt 0.750747 0.323782
vt 0.907190 0.323782
vt 0.281418 0.579949
vt 0.312706 0.579949
vt 0.688170 0.579949
vt 0.719458 0.579949
vt 0.844613 0.579949
vt 0.875901 0.579949
vt 0.250129 0.579949
vt 0.656881 0.579949
vt 0.813324 0.579949
vt 0.218840 0.579949
vt 0.625592 0.579949
vt 0.782036 0.579949
vt 0.187552 0.579949
vt 0.594304 0.579949
vt 0.156263 0.579949
vt 0.563015 0.579949
vt 0.124974 0.579949
vt 0.531726 0.579949
vt 0.093686 0.579949
vt 0.500438 0.579949
vt 0.062397 0.579949
vt 0.469149 0.579949
vt 0.031109 0.579949
vt 0.437861 0.579949
vt -0.000180 0.579949
vt 0.406572 0.579949
vt 0.969767 0.579949
vt 1.001056 0.579949
vt 0.375283 0.579949
vt 0.938479 0.579949
vt 0.343995 0.579949
vt 0.750747 0.579949
vt 0.907190 0.579949
vn 0.0008 -1.0000 0.0009
vn -0.0003 -1.0000 0.0011
vn -0.0003 -1.0000 -0.0011
vn 0.0009 -1.0000 0.0008
vn -0.0001 -1.0000 0.0012
vn -0.0006 -1.0000 -0.0011
vn 0.0011 -1.0000 0.0006
vn -0.0008 -1.0000 -0.0009
vn 0.0011 -1.0000 0.0003
vn -0.0009 -1.0000 -0.0008
vn 0.0012 -1.0000 0.0001
vn -0.0011 -1.0000 -0.0006
vn 0.0012 -1.0000 -0.0001
vn -0.0011 -1.0000 -0.0003
vn 0.0011 -1.0000 -0.0003
vn -0.0012 -1.0000 -0.0001
vn 0.0011 -1.0000 -0.0006
vn -0.0012 -1.0000 0.0001
vn 0.0009 -1.0000 -0.0008
vn -0.0011 -1.0000 0.0003
vn 0.0008 -1.0000 -0.0009
vn -0.0011 -1.0000 0.0006
vn 0.0006 -1.0000 -0.0011
vn 0.0001 -1.0000 0.0012
vn -0.0009 -1.0000 0.0008
vn 0.0003 -1.0000 -0.0011
vn 0.0003 -1.0000 0.0011
vn -0.0008 -1.0000 0.0009
vn 0.0001 -1.0000 -0.0012
vn 0.0006 -1.0000 0.0011
vn -0.0006 -1.0000 0.0011
vn -0.0001 -1.0000 -0.0012
usemtl None
s off
f 164/1/1 161/2/1 36/3/1 37/4/1
f 165/5/2 162/6/2 63/7/2 64/8/2
f 166/9/3 163/10/3 50/11/3 51/12/3
f 167/13/4 164/1/4 37/4/4 38/14/4
f 168/15/5 165/5/5 64/8/5 33/16/5
f 169/17/6 166/9/6 51/12/6 52/18/6
f 170/19/7 167/13/7 38/14/7 39/20/7
f 171/21/8 169/17/8 52/18/8 53/22/8
f 172/23/9 170/19/9 39/20/9 40/24/9
f 173/25/10 171/21/10 53/22/10 54/26/10
f 174/27/11 172/28/11 40/29/11 41/30/11
f 175/31/12 173/25/12 54/26/12 55/32/12
f 176/33/13 174/27/13 41/30/13 42/34/13
f 177/35/14 175/31/14 55/32/14 56/36/14
f 178/37/15 176/33/15 42/34/15 43/38/15
f 179/39/16 177/35/16 56/36/16 57/40/16
f 180/41/17 178/37/17 43/38/17 44/42/17
f 181/43/18 179/39/18 57/40/18 58/44/18
f 182/45/19 180/41/19 44/42/19 45/46/19
f 183/47/20 181/43/20 58/44/20 59/48/20
f 184/49/21 182/45/21 45/46/21 46/50/21
f 185/51/22 183/47/22 59/48/22 60/52/22
f 186/53/23 184/49/23 46/50/23 47/54/23
f 187/55/24 168/15/24 33/16/24 34/56/24
f 188/57/25 185/51/25 60/52/25 61/58/25
f 189/59/26 186/53/26 47/54/26 48/60/26
f 190/61/27 187/55/27 34/56/27 35/62/27
f 191/63/28 188/57/28 61/58/28 62/64/28
f 192/65/29 189/59/29 48/60/29 49/66/29
f 161/2/30 190/61/30 35/62/30 36/3/30
f 162/6/31 191/63/31 62/64/31 63/7/31
f 163/10/32 192/65/32 49/66/32 50/11/32
f 18/67/32 17/68/32 96/69/32 69/70/32
f 31/71/31 30/72/31 95/73/31 67/74/31
f 4/75/30 3/76/30 94/77/30 65/78/30
f 17/68/29 16/79/29 93/80/29 96/69/29
f 30/72/28 29/81/28 92/82/28 95/73/28
f 3/76/27 2/83/27 91/84/27 94/77/27
f 16/79/26 15/85/26 90/86/26 93/80/26
f 29/81/25 28/87/25 89/88/25 92/82/25
f 2/83/24 1/89/24 72/90/24 91/84/24
f 15/85/23 14/91/23 88/92/23 90/86/23
f 28/87/22 27/93/22 87/94/22 89/88/22
f 14/91/21 13/95/21 86/96/21 88/92/21
f 27/93/20 26/97/20 85/98/20 87/94/20
f 13/95/19 12/99/19 84/100/19 86/96/19
f 26/97/18 25/101/18 83/102/18 85/98/18
f 12/99/17 11/103/17 82/104/17 84/100/17
f 25/101/16 24/105/16 81/106/16 83/102/16
f 11/103/15 10/107/15 80/108/15 82/104/15
f 24/105/14 23/109/14 79/110/14 81/106/14
f 10/107/13 9/111/13 78/112/13 80/108/13
f 23/109/12 22/113/12 77/114/12 79/110/12
f 9/111/11 8/115/11 76/116/11 78/112/11
f 22/113/10 21/117/10 75/118/10 77/114/10
f 8/119/9 7/120/9 74/121/9 76/122/9
f 21/117/8 20/123/8 73/124/8 75/118/8
f 7/120/7 6/125/7 71/126/7 74/121/7
f 20/123/6 19/127/6 70/128/6 73/124/6
f 1/89/5 32/129/5 68/130/5 72/90/5
f 6/125/4 5/131/4 66/132/4 71/126/4
f 19/127/3 18/67/3 69/70/3 70/128/3
f 32/129/2 31/71/2 67/74/2 68/130/2
f 5/131/1 4/75/1 65/78/1 66/132/1
f 69/70/32 96/69/32 128/133/32 99/134/32
f 67/74/31 95/73/31 127/135/31 98/136/31
f 65/78/30 94/77/30 126/137/30 97/138/30
f 96/69/29 93/80/29 125/139/29 128/133/29
f 95/73/28 92/82/28 124/140/28 127/135/28
f 94/77/27 91/84/27 123/141/27 126/137/27
f 93/80/26 90/86/26 122/142/26 125/139/26
f 92/82/25 89/88/25 121/143/25 124/140/25
f 91/84/24 72/90/24 104/144/24 123/141/24
f 90/86/23 88/92/23 120/145/23 122/142/23
f 89/88/22 87/94/22 119/146/22 121/143/22
f 88/92/21 86/96/21 118/147/21 120/145/21
f 87/94/20 85/98/20 117/148/20 119/146/20
f 86/96/19 84/100/19 116/149/19 118/147/19
f 85/98/18 83/102/18 115/150/18 117/148/18
f 84/100/17 82/104/17 114/151/17 116/149/17
f 83/102/16 81/106/16 113/152/16 115/150/16
f 82/104/15 80/108/15 112/153/15 114/151/15
f 81/106/14 79/110/14 111/154/14 113/152/14
f 80/108/13 78/112/13 110/155/13 112/153/13
f 79/110/12 77/114/12 109/156/12 111/154/12
f 78/112/11 76/116/11 108/157/11 110/155/11
f 77/114/10 75/118/10 107/158/10 109/156/10
f 76/122/9 74/121/9 106/159/9 108/160/9
f 75/118/8 73/124/8 105/161/8 107/158/8
f 74/121/7 71/126/7 103/162/7 106/159/7
f 73/124/6 70/128/6 102/163/6 105/161/6
f 72/90/5 68/130/5 101/164/5 104/144/5
f 71/126/4 66/132/4 100/165/4 103/162/4
f 70/128/3 69/70/3 99/134/3 102/163/3
f 68/130/2 67/74/2 98/136/2 101/164/2
f 66/132/1 65/78/1 97/138/1 100/165/1
f 99/134/32 128/133/32 160/166/32 131/167/32
f 98/136/31 127/135/31 159/168/31 130/169/31
f 97/138/30 126/137/30 158/170/30 129/171/30
f 128/133/29 125/139/29 157/172/29 160/166/29
f 127/135/28 124/140/28 156/173/28 159/168/28
f 126/137/27 123/141/27 155/174/27 158/170/27
f 125/139/26 122/142/26 154/175/26 157/172/26
f 124/140/25 121/143/25 153/176/25 156/173/25
f 123/141/24 104/144/24 136/177/24 155/174/24
f 122/142/23 120/145/23 152/178/23 154/175/23
f 121/143/22 119/146/22 151/179/22 153/176/22
f 120/145/21 118/147/21 150/180/21 152/178/21
f 119/146/20 117/148/20 149/181/20 151/179/20
f 118/147/19 116/149/19 148/182/19 150/180/19
f 117/148/18 115/150/18 147/183/18 149/181/18
f 116/149/17 114/151/17 146/184/17 148/182/17
f 115/150/16 113/152/16 145/185/16 147/183/16
f 114/151/15 112/153/15 144/186/15 146/184/15
f 113/152/14 111/154/14 143/187/14 145/185/14
f 112/153/13 110/155/13 142/188/13 144/186/13
f 111/154/12 109/156/12 141/189/12 143/187/12
f 110/155/11 108/157/11 140/190/11 142/188/11
f 109/156/10 107/158/10 139/191/10 141/189/10
f 108/160/9 106/159/9 138/192/9 140/193/9
f 107/158/8 105/161/8 137/194/8 139/191/8
f 106/159/7 103/162/7 135/195/7 138/192/7
f 105/161/6 102/163/6 134/196/6 137/194/6
f 104/144/5 101/164/5 133/197/5 136/177/5
f 103/162/4 100/165/4 132/198/4 135/195/4
f 102/163/3 99/134/3 131/167/3 134/196/3
f 101/164/2 98/136/2 130/169/2 133/197/2
f 100/165/1 97/138/1 129/171/1 132/198/1
f 131/167/32 160/166/32 192/65/32 163/10/32
f 130/169/31 159/168/31 191/63/31 162/6/31
f 129/171/30 158/170/30 190/61/30 161/2/30
f 160/166/29 157/172/29 189/59/29 192/65/29
f 159/168/28 156/173/28 188/57/28 191/63/28
f 158/170/27 155/174/27 187/55/27 190/61/27
f 157/172/26 154/175/26 186/53/26 189/59/26
f 156/173/25 153/176/25 185/51/25 188/57/25
f 155/174/24 136/177/24 168/15/24 187/55/24
f 154/175/23 152/178/23 184/49/23 186/53/23
f 153/176/22 151/179/22 183/47/22 185/51/22
f 152/178/21 150/180/21 182/45/21 184/49/21
f 151/179/20 149/181/20 181/43/20 183/47/20
f 150/180/19 148/182/19 180/41/19 182/45/19
f 149/181/18 147/183/18 179/39/18 181/43/18
f 148/182/17 146/184/17 178/37/17 180/41/17
f 147/183/16 145/185/16 177/35/16 179/39/16
f 146/184/15 144/186/15 176/33/15 178/37/15
f 145/185/14 143/187/14 175/31/14 177/35/14
f 144/186/13 142/188/13 174/27/13 176/33/13
f 143/187/12 141/189/12 173/25/12 175/31/12
f 142/188/11 140/190/11 172/28/11 174/27/11
f 141/189/10 139/191/10 171/21/10 173/25/10
f 140/193/9 138/192/9 170/19/9 172/23/9
f 139/191/8 137/194/8 169/17/8 171/21/8
f 138/192/7 135/195/7 167/13/7 170/19/7
f 137/194/6 134/196/6 166/9/6 169/17/6
f 136/177/5 133/197/5 165/5/5 168/15/5
f 135/195/4 132/198/4 164/1/4 167/13/4
f 134/196/3 131/167/3 163/10/3 166/9/3
f 133/197/2 130/169/2 162/6/2 165/5/2
f 132/198/1 129/171/1 161/2/1 164/1/1
