# Blender v3.2.1 OBJ File: 'mock up.blend'
# www.blender.org
mtllib SM_BalloonFoot.mtl
o Sphere001.018_Mesh.189
v 0.340151 -2.886532 0.000000
v 0.294580 -2.886532 -0.170076
v 0.170076 -2.886532 -0.294580
v -0.000000 -2.886532 -0.340151
v -0.170076 -2.886532 -0.294580
v -0.294580 -2.886532 -0.170076
v -0.340152 -2.886532 0.000000
v -0.294580 -2.886532 0.170076
v -0.170076 -2.886532 0.294580
v -0.000000 -2.886532 0.340152
v 0.170075 -2.886532 0.294580
v 0.294580 -2.886532 0.170076
v 0.340151 -0.249462 0.000000
v 0.294580 -0.249462 -0.170076
v 0.170076 -0.249462 -0.294580
v -0.000000 -0.249462 -0.340151
v -0.170076 -0.249462 -0.294580
v -0.294580 -0.249462 -0.170076
v -0.340152 -0.249462 0.000000
v -0.294580 -0.249462 0.170076
v -0.170076 -0.249462 0.294580
v -0.000000 -0.249462 0.340152
v 0.170076 -0.249462 0.294580
v 0.294580 -0.249462 0.170076
v 0.258729 -0.129070 0.000000
v 0.224066 -0.129070 -0.129365
v 0.129365 -0.129070 -0.224066
v -0.000000 -0.129070 -0.258729
v -0.129365 -0.129070 -0.224066
v -0.224066 -0.129070 -0.129365
v -0.258729 -0.129070 0.000000
v -0.224066 -0.129070 0.129365
v -0.129365 -0.129070 0.224066
v -0.000000 -0.129070 0.258729
v 0.129364 -0.129070 0.224066
v 0.224066 -0.129070 0.129365
v 0.258729 1.591468 0.000000
v 0.224066 1.591468 -0.129365
v 0.129365 1.591468 -0.224066
v 0.000000 1.591468 -0.258729
v -0.129365 1.591468 -0.224066
v -0.224066 1.591468 -0.129365
v -0.258729 1.591469 0.000000
v -0.224066 1.591468 0.129365
v -0.129365 1.591468 0.224066
v 0.000000 1.591468 0.258729
v 0.129365 1.591468 0.224066
v 0.224066 1.591468 0.129365
v 0.129787 1.673597 0.000000
v 0.112399 1.673597 -0.064893
v 0.064894 1.673597 -0.112399
v 0.000000 1.673597 -0.129787
v -0.064893 1.673598 -0.112399
v -0.112399 1.673597 -0.064893
v -0.129788 1.673597 0.000000
v -0.112399 1.673597 0.064894
v -0.064893 1.673598 0.112399
v 0.000000 1.673597 0.129788
v 0.064894 1.673597 0.112399
v 0.112399 1.673597 0.064894
vt 0.068279 0.058633
vt 0.059497 0.053765
vt 0.086925 0.053286
vt 0.078318 0.058458
vt 0.376660 0.682410
vt 0.376852 0.672328
vt 0.527847 0.675076
vt 0.527406 0.684671
vt 0.377053 0.662259
vt 0.528385 0.665211
vt 0.377718 0.783405
vt 0.377383 0.773327
vt 0.528649 0.768420
vt 0.529345 0.778261
vt 0.377072 0.763239
vt 0.528048 0.758853
vt 0.376804 0.753141
vt 0.527569 0.749463
vt 0.376591 0.743037
vt 0.527211 0.740185
vt 0.376441 0.732929
vt 0.526969 0.730972
vt 0.376358 0.722819
vt 0.526836 0.721788
vt 0.376342 0.712710
vt 0.526810 0.712602
vt 0.376392 0.702603
vt 0.526892 0.703379
vt 0.376501 0.692502
vt 0.527089 0.694084
vt 0.154577 0.070642
vt 0.154494 0.066893
vt 0.156297 0.063605
vt 0.156523 0.073848
vt 0.535871 0.679427
vt 0.535491 0.687576
vt 0.536418 0.671612
vt 0.536461 0.763922
vt 0.537136 0.771719
vt 0.535963 0.755770
vt 0.535585 0.747396
vt 0.535304 0.738885
vt 0.535113 0.730293
vt 0.535009 0.721665
vt 0.534993 0.713038
vt 0.535065 0.704449
vt 0.535228 0.695944
vt 0.633934 0.682554
vt 0.633716 0.690196
vt 0.634185 0.674909
vt 0.634827 0.758955
vt 0.635228 0.766604
vt 0.634441 0.751315
vt 0.634100 0.743678
vt 0.633821 0.736040
vt 0.633613 0.728401
vt 0.633481 0.720760
vt 0.633429 0.713119
vt 0.633454 0.705477
vt 0.633552 0.697836
vt 0.176858 0.072488
vt 0.172867 0.079633
vt 0.166766 0.073622
vt 0.168569 0.070334
vt 0.165839 0.083824
vt 0.163560 0.075568
vt 0.157656 0.083940
vt 0.159811 0.075651
vt 0.150512 0.079949
vt 0.146321 0.072921
vt 0.146205 0.064738
vt 0.150196 0.057594
vt 0.157224 0.053403
vt 0.159503 0.061659
vt 0.165407 0.053287
vt 0.163252 0.061576
vt 0.172551 0.057278
vt 0.166540 0.063379
vt 0.176742 0.064306
vt 0.168486 0.066585
vt 0.054325 0.045158
vt 0.091793 0.044504
vt 0.054150 0.035119
vt 0.091618 0.034465
vt 0.059018 0.026337
vt 0.086446 0.025858
vt 0.067625 0.021166
vt 0.077664 0.020990
vn 0.0000 -1.0000 0.0000
vn 1.0000 0.0000 -0.0000
vn 0.8660 0.0000 -0.5000
vn 0.5000 0.0000 -0.8660
vn -0.0000 0.0000 -1.0000
vn -0.5000 0.0000 -0.8660
vn -0.8660 0.0000 -0.5000
vn -1.0000 0.0000 -0.0000
vn -0.8660 0.0000 0.5000
vn -0.5000 0.0000 0.8660
vn -0.0000 0.0000 1.0000
vn 0.5000 -0.0000 0.8660
vn 0.8660 -0.0000 0.5000
vn -0.0000 1.0000 0.0000
vn 0.8283 0.5602 -0.0000
vn 0.7174 0.5602 -0.4142
vn 0.4142 0.5602 -0.7174
vn 0.0000 0.5602 -0.8283
vn -0.4142 0.5602 -0.7174
vn -0.7174 0.5602 -0.4142
vn -0.8283 0.5602 0.0000
vn -0.7174 0.5602 0.4142
vn -0.4142 0.5602 0.7174
vn -0.0000 0.5602 0.8283
vn 0.4142 0.5602 0.7174
vn 0.7174 0.5602 0.4142
vn 0.5372 0.8434 -0.0000
vn 0.4653 0.8434 -0.2686
vn 0.2686 0.8434 -0.4653
vn 0.0000 0.8434 -0.5372
vn -0.2686 0.8434 -0.4653
vn -0.4653 0.8434 -0.2686
vn -0.5372 0.8434 -0.0000
vn -0.4653 0.8434 0.2686
vn -0.2686 0.8434 0.4653
vn 0.0000 0.8434 0.5372
vn 0.2686 0.8434 0.4653
vn 0.4653 0.8434 0.2686
usemtl None
s 1
f 11/1/1 10/2/1 1/3/1 12/4/1
f 1/5/2 2/6/3 14/7/3 13/8/2
f 2/6/3 3/9/4 15/10/4 14/7/3
f 3/11/4 4/12/5 16/13/5 15/14/4
f 4/12/5 5/15/6 17/16/6 16/13/5
f 5/15/6 6/17/7 18/18/7 17/16/6
f 6/17/7 7/19/8 19/20/8 18/18/7
f 7/19/8 8/21/9 20/22/9 19/20/8
f 8/21/9 9/23/10 21/24/10 20/22/9
f 9/23/10 10/25/11 22/26/11 21/24/10
f 10/25/11 11/27/12 23/28/12 22/26/11
f 11/27/12 12/29/13 24/30/13 23/28/12
f 12/29/13 1/5/2 13/8/2 24/30/13
f 54/31/14 55/32/14 56/33/14 53/34/14
f 13/8/15 14/7/16 26/35/16 25/36/15
f 14/7/16 15/10/17 27/37/17 26/35/16
f 15/14/17 16/13/18 28/38/18 27/39/17
f 16/13/18 17/16/19 29/40/19 28/38/18
f 17/16/19 18/18/20 30/41/20 29/40/19
f 18/18/20 19/20/21 31/42/21 30/41/20
f 19/20/21 20/22/22 32/43/22 31/42/21
f 20/22/22 21/24/23 33/44/23 32/43/22
f 21/24/23 22/26/24 34/45/24 33/44/23
f 22/26/24 23/28/25 35/46/25 34/45/24
f 23/28/25 24/30/26 36/47/26 35/46/25
f 24/30/26 13/8/15 25/36/15 36/47/26
f 25/36/2 26/35/3 38/48/3 37/49/2
f 26/35/3 27/37/4 39/50/4 38/48/3
f 27/39/4 28/38/5 40/51/5 39/52/4
f 28/38/5 29/40/6 41/53/6 40/51/5
f 29/40/6 30/41/7 42/54/7 41/53/6
f 30/41/7 31/42/8 43/55/8 42/54/7
f 31/42/8 32/43/9 44/56/9 43/55/8
f 32/43/9 33/44/10 45/57/10 44/56/9
f 33/44/10 34/45/11 46/58/11 45/57/10
f 34/45/11 35/46/12 47/59/12 46/58/11
f 35/46/12 36/47/13 48/60/13 47/59/12
f 36/47/13 25/36/2 37/49/2 48/60/13
f 37/61/27 38/62/28 50/63/28 49/64/27
f 38/62/28 39/65/29 51/66/29 50/63/28
f 39/65/29 40/67/30 52/68/30 51/66/29
f 40/67/30 41/69/31 53/34/31 52/68/30
f 41/69/31 42/70/32 54/31/32 53/34/31
f 42/70/32 43/71/33 55/32/33 54/31/32
f 43/71/33 44/72/34 56/33/34 55/32/33
f 44/72/34 45/73/35 57/74/35 56/33/34
f 45/73/35 46/75/36 58/76/36 57/74/35
f 46/75/36 47/77/37 59/78/37 58/76/36
f 47/77/37 48/79/38 60/80/38 59/78/37
f 48/79/38 37/61/27 49/64/27 60/80/38
f 60/80/14 49/64/14 50/63/14 59/78/14
f 59/78/14 50/63/14 51/66/14 58/76/14
f 58/76/14 51/66/14 52/68/14 57/74/14
f 57/74/14 52/68/14 53/34/14 56/33/14
f 9/81/1 2/82/1 1/3/1 10/2/1
f 8/83/1 3/84/1 2/82/1 9/81/1
f 7/85/1 4/86/1 3/84/1 8/83/1
f 6/87/1 5/88/1 4/86/1 7/85/1
