# Blender v3.2.1 OBJ File: ''
# www.blender.org
mtllib flaque.mtl
o Plane
v -0.630646 0.027594 0.840413
v 0.638787 0.027594 0.865116
v -0.677745 0.027594 -0.654646
v 0.861792 0.027594 -0.456344
v -0.657156 0.018396 0.100219
v -0.030702 0.018396 1.072924
v 0.851992 0.018396 0.124648
v 0.024441 0.018396 -0.780253
v 0.042563 0.000000 0.100219
v -0.614309 0.018396 0.542040
v 0.313202 0.018396 1.011564
v 0.873248 0.018396 -0.201837
v -0.361059 0.018396 -0.736561
v -0.818710 0.018396 -0.365057
v -0.426445 0.018396 0.972716
v 0.771108 0.018396 0.523545
v 0.498239 0.018396 -0.676300
v 0.014181 0.000000 -0.385964
v 0.023643 0.000000 0.586759
v -0.286359 0.000000 0.075551
v 0.487065 0.000000 0.111683
v 0.443457 0.000000 0.594264
v -0.322255 0.000000 0.472980
v -0.426522 0.000000 -0.377226
v 0.491316 0.000000 -0.341388
v -0.630646 0.082782 0.840413
v 0.638787 0.082782 0.865116
v -0.677745 0.082782 -0.654646
v 0.861792 0.082782 -0.456344
v -0.657156 0.091980 0.100219
v -0.030702 0.091980 1.072924
v 0.851992 0.091980 0.124648
v 0.024441 0.091980 -0.780253
v 0.042563 0.110376 0.100219
v -0.614309 0.091980 0.542040
v 0.313202 0.091980 1.011564
v 0.873248 0.091980 -0.201837
v -0.361059 0.091980 -0.736561
v -0.818710 0.091980 -0.365057
v -0.426445 0.091980 0.972716
v 0.771108 0.091980 0.523545
v 0.498239 0.091980 -0.676300
v 0.014181 0.110376 -0.385964
v 0.023643 0.110376 0.586759
v -0.286359 0.110376 0.075551
v 0.487065 0.110376 0.111683
v 0.443457 0.110376 0.594264
v -0.322255 0.110376 0.472980
v -0.426522 0.110376 -0.377226
v 0.491316 0.110376 -0.341388
v -0.629528 0.019971 0.723774
v 0.504997 0.019971 0.939847
v 0.882589 0.019971 -0.349006
v -0.545752 0.019971 -0.697858
v -0.755229 0.018396 -0.139274
v -0.232511 0.018396 1.037557
v 0.820006 0.018396 0.315903
v 0.252835 0.018396 -0.752042
v 0.015826 0.002299 -0.614359
v 0.041317 0.000000 0.336203
v -0.487046 0.002299 0.084802
v 0.253704 0.000000 0.107819
v -0.612796 0.018396 0.330613
v 0.141602 0.018396 1.060914
v 0.864901 0.018396 -0.045400
v -0.174586 0.018396 -0.769030
v -0.769605 0.019971 -0.549252
v -0.565418 0.019971 0.900873
v 0.708591 0.019971 0.728796
v 0.728079 0.019971 -0.558575
v 0.028001 0.000000 -0.141887
v -0.004992 0.002299 0.858008
v -0.122208 0.000000 0.084802
v 0.700779 0.002299 0.118165
v 0.477239 0.000000 0.350284
v 0.377213 0.002299 0.833032
v 0.229645 0.000000 0.610263
v 0.635826 0.002299 0.557854
v -0.278794 0.000000 0.263395
v -0.379904 0.002299 0.741764
v -0.487959 0.002299 0.494126
v -0.155389 0.000000 0.521100
v -0.410924 0.002299 -0.588144
v -0.361307 0.000000 -0.143878
v -0.648548 0.002299 -0.370250
v -0.207136 0.000000 -0.383719
v 0.494732 0.002299 -0.537747
v 0.489647 0.000000 -0.120799
v 0.250687 0.000000 -0.377349
v 0.713532 0.002299 -0.270406
v -0.629528 0.090404 0.723774
v 0.504996 0.090404 0.939847
v 0.882589 0.090404 -0.349006
v -0.545752 0.090404 -0.697858
v -0.755229 0.091980 -0.139274
v -0.232511 0.091980 1.037557
v 0.820007 0.091980 0.315903
v 0.252835 0.091980 -0.752042
v 0.015826 0.108076 -0.614359
v 0.041317 0.110375 0.336203
v -0.487046 0.108076 0.084802
v 0.253704 0.110375 0.107819
v -0.612796 0.091980 0.330613
v 0.141602 0.091980 1.060914
v 0.864901 0.091980 -0.045400
v -0.174586 0.091980 -0.769030
v -0.769605 0.090404 -0.549252
v -0.565418 0.090404 0.900873
v 0.708591 0.090404 0.728796
v 0.728079 0.090404 -0.558575
v 0.028001 0.110375 -0.141887
v -0.004992 0.108076 0.858008
v -0.122208 0.110375 0.084802
v 0.700779 0.108076 0.118165
v 0.477239 0.110375 0.350284
v 0.377213 0.108076 0.833032
v 0.229645 0.110375 0.610263
v 0.635826 0.108076 0.557854
v -0.278794 0.110375 0.263395
v -0.379904 0.108076 0.741764
v -0.487959 0.108076 0.494126
v -0.155389 0.110375 0.521100
v -0.410924 0.108076 -0.588144
v -0.361307 0.110375 -0.143878
v -0.648548 0.108076 -0.370250
v -0.207136 0.110375 -0.383719
v 0.494732 0.108076 -0.537747
v 0.489647 0.110375 -0.120799
v 0.250687 0.110375 -0.377349
v 0.713532 0.108076 -0.270406
v 0.890847 0.055188 -0.456918
v 0.929235 0.055188 -0.176275
v -0.443204 0.055188 1.056958
v -0.647480 0.055188 0.856707
v -0.685733 0.055188 -0.670211
v -0.340218 0.055188 -0.788312
v 0.818271 0.055188 0.510810
v 0.655304 0.055188 0.881045
v -0.719035 0.055188 0.106386
v -0.879279 0.055188 -0.363221
v 0.499560 0.055188 -0.724645
v -0.659231 0.055188 0.561681
v -0.040160 0.055188 1.149997
v 0.289337 0.055188 1.074748
v 0.904791 0.055188 0.127079
v 0.028107 0.055188 -0.838557
v 0.722279 0.004514 -0.439112
v -0.201279 0.002299 -0.607625
v -0.122192 0.000000 0.291379
v 0.679534 0.002299 0.332962
v 0.250289 0.000000 0.355430
v 0.185301 0.002299 0.866312
v 0.567856 0.004514 0.778168
v -0.461213 0.002299 0.288007
v -0.530704 0.004514 0.720562
v -0.198118 0.002299 0.801714
v -0.616503 0.004514 -0.566544
v -0.579017 0.002299 -0.141850
v -0.166160 0.000000 -0.143534
v 0.251320 0.002299 -0.595652
v 0.252206 0.000000 -0.138100
v 0.708524 0.002299 -0.082949
v 0.722279 0.105862 -0.439112
v -0.201279 0.108076 -0.607625
v -0.122192 0.110375 0.291379
v 0.679534 0.108076 0.332962
v 0.250289 0.110375 0.355430
v 0.185301 0.108076 0.866312
v 0.567856 0.105862 0.778168
v -0.461213 0.108076 0.288007
v -0.530704 0.105862 0.720562
v -0.198118 0.108076 0.801714
v -0.616504 0.105862 -0.566544
v -0.579017 0.108076 -0.141850
v -0.166160 0.110375 -0.143534
v 0.251320 0.108076 -0.595652
v 0.252206 0.110375 -0.138100
v 0.708524 0.108076 -0.082949
v 0.938930 0.055188 -0.318390
v -0.579804 0.055188 0.964047
v -0.520300 0.055188 -0.742324
v 0.757089 0.055188 0.714512
v -0.818714 0.055188 -0.138273
v 0.734382 0.055188 -0.597513
v -0.667712 0.055188 0.347714
v -0.244887 0.055188 1.123200
v 0.125255 0.055188 1.130049
v 0.868820 0.055188 0.309522
v 0.919636 0.055188 -0.031339
v 0.253458 0.055188 -0.806819
v -0.663743 0.055188 0.729394
v -0.163273 0.055188 -0.825650
v 0.485868 0.055188 0.995284
v -0.821222 0.055188 -0.546008
vt 0.750000 0.750000
vt 0.750000 0.875000
vt 0.875000 0.875000
vt 0.875000 0.750000
vt 0.750000 1.000000
vt 0.875000 1.000000
vt 1.000000 1.000000
vt 1.000000 0.875000
vt 1.000000 0.750000
vt 0.250000 0.750000
vt 0.250000 0.875000
vt 0.375000 0.875000
vt 0.375000 0.750000
vt 0.250000 1.000000
vt 0.375000 1.000000
vt 0.500000 1.000000
vt 0.500000 0.875000
vt 0.500000 0.750000
vt 0.250000 0.250000
vt 0.250000 0.375000
vt 0.375000 0.375000
vt 0.375000 0.250000
vt 0.250000 0.500000
vt 0.375000 0.500000
vt 0.500000 0.500000
vt 0.500000 0.375000
vt 0.500000 0.250000
vt 0.750000 0.250000
vt 0.750000 0.375000
vt 0.875000 0.375000
vt 0.875000 0.250000
vt 0.750000 0.500000
vt 0.875000 0.500000
vt 1.000000 0.500000
vt 1.000000 0.375000
vt 1.000000 0.250000
vt 0.625000 0.375000
vt 0.625000 0.250000
vt 0.625000 0.500000
vt 0.500000 0.000000
vt 0.500000 0.125000
vt 0.625000 0.125000
vt 0.625000 0.000000
vt 0.750000 0.125000
vt 0.750000 0.000000
vt 0.875000 0.125000
vt 0.875000 0.000000
vt 1.000000 0.125000
vt 1.000000 0.000000
vt 0.000000 0.250000
vt 0.000000 0.375000
vt 0.125000 0.375000
vt 0.125000 0.250000
vt 0.000000 0.500000
vt 0.125000 0.500000
vt 0.000000 0.000000
vt 0.000000 0.125000
vt 0.125000 0.125000
vt 0.125000 0.000000
vt 0.250000 0.125000
vt 0.250000 0.000000
vt 0.375000 0.125000
vt 0.375000 0.000000
vt 0.000000 0.750000
vt 0.000000 0.875000
vt 0.125000 0.875000
vt 0.125000 0.750000
vt 0.000000 1.000000
vt 0.125000 1.000000
vt 0.000000 0.625000
vt 0.125000 0.625000
vt 0.250000 0.625000
vt 0.375000 0.625000
vt 0.500000 0.625000
vt 0.625000 0.875000
vt 0.625000 0.750000
vt 0.625000 1.000000
vt 0.625000 0.625000
vt 0.750000 0.625000
vt 0.875000 0.625000
vt 1.000000 0.625000
vt 0.750000 0.750000
vt 0.869792 0.750000
vt 0.869117 0.869117
vt 0.750000 0.869792
vt 0.958333 0.750000
vt 0.954765 0.867091
vt 0.937500 0.937500
vt 0.867091 0.954765
vt 0.750000 0.958333
vt 0.250000 0.750000
vt 0.375000 0.750000
vt 0.375000 0.869792
vt 0.250000 0.869792
vt 0.500000 0.750000
vt 0.500000 0.869792
vt 0.500000 0.958333
vt 0.375000 0.958333
vt 0.250000 0.958333
vt 0.250000 0.250000
vt 0.375000 0.250000
vt 0.375000 0.375000
vt 0.250000 0.375000
vt 0.500000 0.250000
vt 0.500000 0.375000
vt 0.500000 0.500000
vt 0.375000 0.500000
vt 0.250000 0.500000
vt 0.750000 0.250000
vt 0.869792 0.250000
vt 0.869792 0.375000
vt 0.750000 0.375000
vt 0.958333 0.250000
vt 0.958333 0.375000
vt 0.958333 0.500000
vt 0.869792 0.500000
vt 0.750000 0.500000
vt 0.625000 0.250000
vt 0.625000 0.375000
vt 0.625000 0.500000
vt 0.500000 0.041667
vt 0.625000 0.041667
vt 0.625000 0.130208
vt 0.500000 0.130208
vt 0.750000 0.041667
vt 0.750000 0.130208
vt 0.867091 0.045235
vt 0.869117 0.130883
vt 0.937500 0.062500
vt 0.954765 0.132909
vt 0.041667 0.250000
vt 0.130208 0.250000
vt 0.130208 0.375000
vt 0.041667 0.375000
vt 0.130208 0.500000
vt 0.041667 0.500000
vt 0.062500 0.062500
vt 0.132909 0.045235
vt 0.130883 0.130883
vt 0.045235 0.132909
vt 0.250000 0.041667
vt 0.250000 0.130208
vt 0.375000 0.041667
vt 0.375000 0.130208
vt 0.041667 0.750000
vt 0.130208 0.750000
vt 0.130883 0.869117
vt 0.045235 0.867091
vt 0.132909 0.954765
vt 0.062500 0.937500
vt 0.130208 0.625000
vt 0.041667 0.625000
vt 0.250000 0.625000
vt 0.375000 0.625000
vt 0.500000 0.625000
vt 0.625000 0.750000
vt 0.625000 0.869792
vt 0.625000 0.958333
vt 0.625000 0.625000
vt 0.750000 0.625000
vt 0.869792 0.625000
vt 0.958333 0.625000
vt 0.990644 0.869985
vt 0.994792 0.750000
vt 0.958237 0.958237
vt 0.130015 0.009356
vt 0.041763 0.041763
vt 0.250000 0.005208
vt 0.130015 0.990644
vt 0.250000 0.994792
vt 0.041763 0.958237
vt 0.990644 0.130015
vt 0.958237 0.041763
vt 0.994792 0.250000
vt 0.005208 0.625000
vt 0.005208 0.750000
vt 0.005208 0.500000
vt 0.869985 0.990644
vt 0.750000 0.994792
vt 0.005208 0.375000
vt 0.005208 0.250000
vt 0.375000 0.005208
vt 0.500000 0.005208
vt 0.625000 0.005208
vt 0.750000 0.005208
vt 0.994792 0.375000
vt 0.994792 0.500000
vt 0.994792 0.625000
vt 0.625000 0.994792
vt 0.500000 0.994792
vt 0.009356 0.130015
vt 0.375000 0.994792
vt 0.869985 0.009356
vt 0.009356 0.869985
vn 0.0145 -0.9998 -0.0119
vn 0.0644 -0.9908 -0.1188
vn 0.1490 -0.9827 -0.1099
vn 0.1011 -0.9949 -0.0061
vn -0.0006 -0.9999 -0.0106
vn -0.0140 -0.9942 -0.1068
vn -0.0042 -0.9951 -0.0983
vn -0.0002 -0.9999 -0.0102
vn 0.0000 -1.0000 0.0000
vn 0.0119 -0.9999 0.0020
vn 0.0111 -0.9999 0.0008
vn 0.1102 -0.9938 0.0144
vn 0.1207 -0.9924 0.0258
vn 0.0008 -0.9969 0.0785
vn -0.0007 -1.0000 0.0086
vn 0.0012 -1.0000 0.0096
vn 0.0209 -0.9955 0.0919
vn 0.0460 -0.9929 0.1092
vn 0.0152 -0.9998 0.0143
vn 0.1278 -0.9906 0.0480
vn 0.1460 -0.9792 0.1408
vn -0.1176 -0.9930 -0.0080
vn -0.0968 -0.9952 0.0157
vn -0.0119 -0.9999 0.0010
vn -0.0135 -0.9999 -0.0023
vn -0.1587 -0.9857 0.0575
vn -0.1412 -0.9899 -0.0109
vn -0.0143 -0.9999 0.0062
vn -0.0354 -0.9970 0.0695
vn -0.0216 -0.9976 0.0651
vn -0.0025 -1.0000 0.0079
vn -0.0026 -1.0000 0.0080
vn -0.0160 -0.9975 0.0691
vn -0.0992 -0.9946 -0.0311
vn -0.1163 -0.9776 -0.1752
vn -0.0288 -0.9918 -0.1243
vn -0.0114 -0.9999 -0.0124
vn -0.0906 -0.9952 0.0369
vn -0.0919 -0.9954 0.0269
vn -0.0104 -0.9999 0.0030
vn -0.0109 -0.9999 0.0041
vn 0.0006 -0.9999 -0.0103
vn 0.0100 -0.9950 -0.0991
vn 0.0295 -0.9937 -0.1080
vn 0.0021 -0.9999 -0.0111
vn 0.0106 -0.9999 0.0003
vn 0.0104 -0.9999 0.0002
vn 0.1000 -0.9950 0.0039
vn 0.1033 -0.9946 0.0057
vn 0.0145 0.9998 -0.0119
vn 0.1011 0.9949 -0.0061
vn 0.1490 0.9827 -0.1099
vn 0.0644 0.9908 -0.1188
vn -0.0006 0.9999 -0.0106
vn -0.0002 0.9999 -0.0102
vn -0.0042 0.9951 -0.0983
vn -0.0140 0.9942 -0.1068
vn 0.0000 1.0000 0.0000
vn 0.0119 0.9999 0.0020
vn 0.1207 0.9924 0.0258
vn 0.1102 0.9938 0.0144
vn 0.0111 0.9999 0.0008
vn 0.0008 0.9969 0.0785
vn 0.0209 0.9955 0.0919
vn 0.0012 1.0000 0.0096
vn -0.0007 1.0000 0.0086
vn 0.0460 0.9929 0.1092
vn 0.1460 0.9792 0.1408
vn 0.1278 0.9906 0.0480
vn 0.0152 0.9998 0.0143
vn -0.1176 0.9930 -0.0080
vn -0.0135 0.9999 -0.0023
vn -0.0119 0.9999 0.0010
vn -0.0968 0.9952 0.0157
vn -0.1587 0.9857 0.0575
vn -0.0354 0.9970 0.0695
vn -0.0143 0.9999 0.0062
vn -0.1412 0.9899 -0.0109
vn -0.0216 0.9976 0.0651
vn -0.0160 0.9975 0.0691
vn -0.0026 1.0000 0.0080
vn -0.0025 1.0000 0.0079
vn -0.0992 0.9946 -0.0311
vn -0.0114 0.9999 -0.0124
vn -0.0288 0.9918 -0.1243
vn -0.1163 0.9776 -0.1752
vn -0.0906 0.9952 0.0369
vn -0.0109 0.9999 0.0041
vn -0.0104 0.9999 0.0030
vn -0.0919 0.9954 0.0269
vn 0.0006 0.9999 -0.0103
vn 0.0021 0.9999 -0.0111
vn 0.0295 0.9937 -0.1080
vn 0.0100 0.9950 -0.0991
vn 0.0106 0.9999 0.0003
vn 0.1033 0.9946 0.0057
vn 0.1000 0.9950 0.0039
vn 0.0104 0.9999 0.0002
vn 0.5287 -0.8483 0.0302
vn 0.6251 -0.7549 -0.1985
vn 0.6251 0.7549 -0.1985
vn 0.5287 0.8483 0.0302
vn -0.5315 -0.7536 0.3868
vn -0.2358 -0.8919 0.3859
vn -0.2358 0.8919 0.3859
vn -0.5315 0.7536 0.3868
vn -0.1514 -0.7551 -0.6379
vn -0.2988 -0.6146 -0.7300
vn -0.2988 0.6146 -0.7300
vn -0.1514 0.7551 -0.6379
vn 0.6382 -0.6705 0.3784
vn 0.6242 -0.7573 0.1917
vn 0.6242 0.7573 0.1917
vn 0.6382 0.6705 0.3784
vn -0.5029 -0.8532 0.1384
vn -0.4876 -0.8501 0.1991
vn -0.4876 0.8501 0.1991
vn -0.5029 0.8532 0.1384
vn 0.5003 -0.6450 -0.5776
vn 0.3125 -0.7460 -0.5881
vn 0.3125 0.7460 -0.5881
vn 0.5003 0.6450 -0.5776
vn -0.5151 -0.8507 0.1045
vn -0.5910 -0.8066 0.0097
vn -0.5910 0.8066 0.0097
vn -0.5151 0.8507 0.1045
vn -0.1257 -0.9180 0.3761
vn -0.0618 -0.9125 0.4044
vn -0.0618 0.9125 0.4044
vn -0.1257 0.9180 0.3761
vn 0.0431 -0.8893 0.4552
vn 0.1611 -0.8409 0.5166
vn 0.1611 0.8409 0.5166
vn 0.0431 0.8893 0.4552
vn 0.6202 -0.7698 0.1508
vn 0.5859 -0.8033 0.1065
vn 0.5859 0.8033 0.1065
vn 0.6202 0.7698 0.1508
vn 0.5591 -0.8277 0.0472
vn 0.5451 -0.8377 0.0325
vn 0.5451 0.8377 0.0325
vn 0.5591 0.8277 0.0472
vn 0.1827 -0.8019 -0.5688
vn 0.0716 -0.8373 -0.5421
vn 0.0716 0.8373 -0.5421
vn 0.1827 0.8019 -0.5688
vn -0.6787 -0.7336 -0.0350
vn -0.7626 -0.6433 0.0674
vn -0.7626 0.6433 0.0674
vn -0.6787 0.7336 -0.0350
vn -0.0335 -0.8397 -0.5420
vn -0.1115 -0.8065 -0.5807
vn -0.1115 0.8065 -0.5807
vn -0.0335 0.8397 -0.5420
vn 0.2226 -0.7955 0.5636
vn 0.3996 -0.6808 0.6138
vn 0.3996 0.6808 0.6138
vn 0.2226 0.7955 0.5636
vn -0.5438 -0.6257 -0.5592
vn -0.5383 -0.8273 -0.1607
vn -0.5383 0.8273 -0.1607
vn -0.5438 0.6257 -0.5592
usemtl None
s off
f 25/1/1 87/2/1 147/3/1 90/4/1
f 87/2/2 17/5/2 70/6/2 147/3/2
f 147/3/3 70/6/3 4/7/3 53/8/3
f 90/4/4 147/3/4 53/8/4 12/9/4
f 24/10/5 83/11/5 148/12/5 86/13/5
f 83/11/6 13/14/6 66/15/6 148/12/6
f 148/12/7 66/15/7 8/16/7 59/17/7
f 86/13/8 148/12/8 59/17/8 18/18/8
f 23/19/9 79/20/9 149/21/9 82/22/9
f 79/20/9 20/23/9 73/24/9 149/21/9
f 149/21/9 73/24/9 9/25/9 60/26/9
f 82/22/9 149/21/9 60/26/9 19/27/9
f 22/28/10 75/29/10 150/30/10 78/31/10
f 75/29/11 21/32/11 74/33/11 150/30/11
f 150/30/12 74/33/12 7/34/12 57/35/12
f 78/31/13 150/30/13 57/35/13 16/36/13
f 19/27/9 60/26/9 151/37/9 77/38/9
f 60/26/9 9/25/9 62/39/9 151/37/9
f 151/37/9 62/39/9 21/32/9 75/29/9
f 77/38/9 151/37/9 75/29/9 22/28/9
f 6/40/14 72/41/14 152/42/14 64/43/14
f 72/41/15 19/27/15 77/38/15 152/42/15
f 152/42/16 77/38/16 22/28/16 76/44/16
f 64/43/17 152/42/17 76/44/17 11/45/17
f 11/45/18 76/44/18 153/46/18 52/47/18
f 76/44/19 22/28/19 78/31/19 153/46/19
f 153/46/20 78/31/20 16/36/20 69/48/20
f 52/47/21 153/46/21 69/48/21 2/49/21
f 10/50/22 63/51/22 154/52/22 81/53/22
f 63/51/23 5/54/23 61/55/23 154/52/23
f 154/52/24 61/55/24 20/23/24 79/20/24
f 81/53/25 154/52/25 79/20/25 23/19/25
f 1/56/26 51/57/26 155/58/26 68/59/26
f 51/57/27 10/50/27 81/53/27 155/58/27
f 155/58/28 81/53/28 23/19/28 80/60/28
f 68/59/29 155/58/29 80/60/29 15/61/29
f 15/61/30 80/60/30 156/62/30 56/63/30
f 80/60/31 23/19/31 82/22/31 156/62/31
f 156/62/32 82/22/32 19/27/32 72/41/32
f 56/63/33 156/62/33 72/41/33 6/40/33
f 14/64/34 67/65/34 157/66/34 85/67/34
f 67/65/35 3/68/35 54/69/35 157/66/35
f 157/66/36 54/69/36 13/14/36 83/11/36
f 85/67/37 157/66/37 83/11/37 24/10/37
f 5/54/38 55/70/38 158/71/38 61/55/38
f 55/70/39 14/64/39 85/67/39 158/71/39
f 158/71/40 85/67/40 24/10/40 84/72/40
f 61/55/41 158/71/41 84/72/41 20/23/41
f 20/23/9 84/72/9 159/73/9 73/24/9
f 84/72/9 24/10/9 86/13/9 159/73/9
f 159/73/9 86/13/9 18/18/9 71/74/9
f 73/24/9 159/73/9 71/74/9 9/25/9
f 18/18/42 59/17/42 160/75/42 89/76/42
f 59/17/43 8/16/43 58/77/43 160/75/43
f 160/75/44 58/77/44 17/5/44 87/2/44
f 89/76/45 160/75/45 87/2/45 25/1/45
f 9/25/9 71/74/9 161/78/9 62/39/9
f 71/74/9 18/18/9 89/76/9 161/78/9
f 161/78/9 89/76/9 25/1/9 88/79/9
f 62/39/9 161/78/9 88/79/9 21/32/9
f 21/32/46 88/79/46 162/80/46 74/33/46
f 88/79/47 25/1/47 90/4/47 162/80/47
f 162/80/48 90/4/48 12/9/48 65/81/48
f 74/33/49 162/80/49 65/81/49 7/34/49
f 50/82/50 130/83/50 163/84/50 127/85/50
f 130/83/51 37/86/51 93/87/51 163/84/51
f 163/84/52 93/87/52 29/88/52 110/89/52
f 127/85/53 163/84/53 110/89/53 42/90/53
f 49/91/54 126/92/54 164/93/54 123/94/54
f 126/92/55 43/95/55 99/96/55 164/93/55
f 164/93/56 99/96/56 33/97/56 106/98/56
f 123/94/57 164/93/57 106/98/57 38/99/57
f 48/100/58 122/101/58 165/102/58 119/103/58
f 122/101/58 44/104/58 100/105/58 165/102/58
f 165/102/58 100/105/58 34/106/58 113/107/58
f 119/103/58 165/102/58 113/107/58 45/108/58
f 47/109/59 118/110/59 166/111/59 115/112/59
f 118/110/60 41/113/60 97/114/60 166/111/60
f 166/111/61 97/114/61 32/115/61 114/116/61
f 115/112/62 166/111/62 114/116/62 46/117/62
f 44/104/58 117/118/58 167/119/58 100/105/58
f 117/118/58 47/109/58 115/112/58 167/119/58
f 167/119/58 115/112/58 46/117/58 102/120/58
f 100/105/58 167/119/58 102/120/58 34/106/58
f 31/121/63 104/122/63 168/123/63 112/124/63
f 104/122/64 36/125/64 116/126/64 168/123/64
f 168/123/65 116/126/65 47/109/65 117/118/65
f 112/124/66 168/123/66 117/118/66 44/104/66
f 36/125/67 92/127/67 169/128/67 116/126/67
f 92/127/68 27/129/68 109/130/68 169/128/68
f 169/128/69 109/130/69 41/113/69 118/110/69
f 116/126/70 169/128/70 118/110/70 47/109/70
f 35/131/71 121/132/71 170/133/71 103/134/71
f 121/132/72 48/100/72 119/103/72 170/133/72
f 170/133/73 119/103/73 45/108/73 101/135/73
f 103/134/74 170/133/74 101/135/74 30/136/74
f 26/137/75 108/138/75 171/139/75 91/140/75
f 108/138/76 40/141/76 120/142/76 171/139/76
f 171/139/77 120/142/77 48/100/77 121/132/77
f 91/140/78 171/139/78 121/132/78 35/131/78
f 40/141/79 96/143/79 172/144/79 120/142/79
f 96/143/80 31/121/80 112/124/80 172/144/80
f 172/144/81 112/124/81 44/104/81 122/101/81
f 120/142/82 172/144/82 122/101/82 48/100/82
f 39/145/83 125/146/83 173/147/83 107/148/83
f 125/146/84 49/91/84 123/94/84 173/147/84
f 173/147/85 123/94/85 38/99/85 94/149/85
f 107/148/86 173/147/86 94/149/86 28/150/86
f 30/136/87 101/135/87 174/151/87 95/152/87
f 101/135/88 45/108/88 124/153/88 174/151/88
f 174/151/89 124/153/89 49/91/89 125/146/89
f 95/152/90 174/151/90 125/146/90 39/145/90
f 45/108/58 113/107/58 175/154/58 124/153/58
f 113/107/58 34/106/58 111/155/58 175/154/58
f 175/154/58 111/155/58 43/95/58 126/92/58
f 124/153/58 175/154/58 126/92/58 49/91/58
f 43/95/91 129/156/91 176/157/91 99/96/91
f 129/156/92 50/82/92 127/85/92 176/157/92
f 176/157/93 127/85/93 42/90/93 98/158/93
f 99/96/94 176/157/94 98/158/94 33/97/94
f 34/106/58 102/120/58 177/159/58 111/155/58
f 102/120/58 46/117/58 128/160/58 177/159/58
f 177/159/58 128/160/58 50/82/58 129/156/58
f 111/155/58 177/159/58 129/156/58 43/95/58
f 46/117/95 114/116/95 178/161/95 128/160/95
f 114/116/96 32/115/96 105/162/96 178/161/96
f 178/161/97 105/162/97 37/86/97 130/83/97
f 128/160/98 178/161/98 130/83/98 50/82/98
f 12/9/99 53/8/99 179/163/99 132/164/99
f 53/8/100 4/7/100 131/165/100 179/163/100
f 179/163/101 131/165/101 29/88/101 93/87/101
f 132/164/102 179/163/102 93/87/102 37/86/102
f 1/56/103 68/59/103 180/166/103 134/167/103
f 68/59/104 15/61/104 133/168/104 180/166/104
f 180/166/105 133/168/105 40/141/105 108/138/105
f 134/167/106 180/166/106 108/138/106 26/137/106
f 13/14/107 54/69/107 181/169/107 136/170/107
f 54/69/108 3/68/108 135/171/108 181/169/108
f 181/169/109 135/171/109 28/150/109 94/149/109
f 136/170/110 181/169/110 94/149/110 38/99/110
f 2/49/111 69/48/111 182/172/111 138/173/111
f 69/48/112 16/36/112 137/174/112 182/172/112
f 182/172/113 137/174/113 41/113/113 109/130/113
f 138/173/114 182/172/114 109/130/114 27/129/114
f 14/64/115 55/70/115 183/175/115 140/176/115
f 55/70/116 5/54/116 139/177/116 183/175/116
f 183/175/117 139/177/117 30/136/117 95/152/117
f 140/176/118 183/175/118 95/152/118 39/145/118
f 4/7/119 70/6/119 184/178/119 131/165/119
f 70/6/120 17/5/120 141/179/120 184/178/120
f 184/178/121 141/179/121 42/90/121 110/89/121
f 131/165/122 184/178/122 110/89/122 29/88/122
f 5/54/123 63/51/123 185/180/123 139/177/123
f 63/51/124 10/50/124 142/181/124 185/180/124
f 185/180/125 142/181/125 35/131/125 103/134/125
f 139/177/126 185/180/126 103/134/126 30/136/126
f 15/61/127 56/63/127 186/182/127 133/168/127
f 56/63/128 6/40/128 143/183/128 186/182/128
f 186/182/129 143/183/129 31/121/129 96/143/129
f 133/168/130 186/182/130 96/143/130 40/141/130
f 6/40/131 64/43/131 187/184/131 143/183/131
f 64/43/132 11/45/132 144/185/132 187/184/132
f 187/184/133 144/185/133 36/125/133 104/122/133
f 143/183/134 187/184/134 104/122/134 31/121/134
f 16/36/135 57/35/135 188/186/135 137/174/135
f 57/35/136 7/34/136 145/187/136 188/186/136
f 188/186/137 145/187/137 32/115/137 97/114/137
f 137/174/138 188/186/138 97/114/138 41/113/138
f 7/34/139 65/81/139 189/188/139 145/187/139
f 65/81/140 12/9/140 132/164/140 189/188/140
f 189/188/141 132/164/141 37/86/141 105/162/141
f 145/187/142 189/188/142 105/162/142 32/115/142
f 17/5/143 58/77/143 190/189/143 141/179/143
f 58/77/144 8/16/144 146/190/144 190/189/144
f 190/189/145 146/190/145 33/97/145 98/158/145
f 141/179/146 190/189/146 98/158/146 42/90/146
f 10/50/147 51/57/147 191/191/147 142/181/147
f 51/57/148 1/56/148 134/167/148 191/191/148
f 191/191/149 134/167/149 26/137/149 91/140/149
f 142/181/150 191/191/150 91/140/150 35/131/150
f 8/16/151 66/15/151 192/192/151 146/190/151
f 66/15/152 13/14/152 136/170/152 192/192/152
f 192/192/153 136/170/153 38/99/153 106/98/153
f 146/190/154 192/192/154 106/98/154 33/97/154
f 11/45/155 52/47/155 193/193/155 144/185/155
f 52/47/156 2/49/156 138/173/156 193/193/156
f 193/193/157 138/173/157 27/129/157 92/127/157
f 144/185/158 193/193/158 92/127/158 36/125/158
f 3/68/159 67/65/159 194/194/159 135/171/159
f 67/65/160 14/64/160 140/176/160 194/194/160
f 194/194/161 140/176/161 39/145/161 107/148/161
f 135/171/162 194/194/162 107/148/162 28/150/162
